<svg xmlns="http://www.w3.org/2000/svg" viewBox="0 0 24 24"><title>39.Quote</title><g id="_39.Quote" data-name="39.Quote"><path d="M12,24A12,12,0,1,1,24,12,12.013,12.013,0,0,1,12,24ZM12,2A10,10,0,1,0,22,12,10.011,10.011,0,0,0,12,2Z"/><path d="M8,17a3,3,0,1,1,3-3A3,3,0,0,1,8,17Zm0-4a1,1,0,1,0,1,1A1,1,0,0,0,8,13Z"/><path d="M11,14H9V10A.915.915,0,0,0,8,9H6V7H8a2.916,2.916,0,0,1,3,3Z"/><path d="M16,17a3,3,0,1,1,3-3A3,3,0,0,1,16,17Zm0-4a1,1,0,1,0,1,1A1,1,0,0,0,16,13Z"/><path d="M19,14H17V10a.915.915,0,0,0-1-1H14V7h2a2.916,2.916,0,0,1,3,3Z"/></g></svg>